<svg width="822" height="1094" viewBox="0 0 822 1094" fill="none" xmlns="http://www.w3.org/2000/svg">
<g filter="url(#filter0_d_21_13)">
<path d="M546.618 2.3144e-05H817.926V271.309H546.618V2.3144e-05ZM275.309 2.3144e-05H546.618V271.309H275.309V2.3144e-05ZM4 271.309H275.309V542.618H4V271.309ZM546.618 542.618H817.926V813.926H546.618V542.618ZM546.618 813.926H817.926V1085.24H546.618V813.926ZM4 813.926H275.309V1085.24H4V813.926ZM4 2.3144e-05H275.309V271.309H4V2.3144e-05ZM275.309 813.926H546.618V1085.24H275.309V813.926Z" fill="#FF9D00"/>
</g>
<defs>
<filter id="filter0_d_21_13" x="0" y="0" width="821.927" height="1093.24" filterUnits="userSpaceOnUse" color-interpolation-filters="sRGB">
<feFlood flood-opacity="0" result="BackgroundImageFix"/>
<feColorMatrix in="SourceAlpha" type="matrix" values="0 0 0 0 0 0 0 0 0 0 0 0 0 0 0 0 0 0 127 0" result="hardAlpha"/>
<feOffset dy="4"/>
<feGaussianBlur stdDeviation="2"/>
<feComposite in2="hardAlpha" operator="out"/>
<feColorMatrix type="matrix" values="0 0 0 0 0 0 0 0 0 0 0 0 0 0 0 0 0 0 0.25 0"/>
<feBlend mode="normal" in2="BackgroundImageFix" result="effect1_dropShadow_21_13"/>
<feBlend mode="normal" in="SourceGraphic" in2="effect1_dropShadow_21_13" result="shape"/>
</filter>
</defs>
</svg>
