<svg width="1079" height="1084" viewBox="0 0 1079 1084" fill="none" xmlns="http://www.w3.org/2000/svg">
<mask id="path-1-outside-1_20_9" maskUnits="userSpaceOnUse" x="-0.0922852" y="-0.722618" width="1080" height="1085" fill="black">
<rect fill="white" x="-0.0922852" y="-0.722618" width="1080" height="1085"/>
<path d="M911.97 277.414C907.513 277.414 903.755 274.139 902.885 269.767C893.303 221.622 862.386 183.944 810.134 156.732C755.147 128.096 687.703 113.777 607.8 113.777C549.376 113.777 498.256 121.277 454.438 136.277C411.05 151.277 377.113 171.902 352.626 198.152C328.569 224.402 316.541 254.232 316.541 287.641C316.541 315.596 324.918 339.63 341.672 359.743C358.855 379.516 380.764 396.05 407.398 409.346C434.033 422.3 461.956 433.039 491.167 441.561C520.379 449.743 547.228 456.391 571.714 461.505L705.745 490.141C740.112 497.3 778.345 507.186 820.444 519.8C862.973 532.414 903.569 549.63 942.232 571.448C981.324 592.925 1013.54 620.539 1038.89 654.289C1064.23 688.039 1076.91 729.459 1076.91 778.55C1076.91 835.141 1058.22 886.277 1020.85 931.959C983.902 977.641 929.774 1013.95 858.463 1040.88C787.581 1067.81 701.449 1081.28 600.067 1081.28C505.558 1081.28 423.723 1069.18 354.559 1044.97C285.826 1020.77 231.698 987.016 192.176 943.721C153.82 901.241 116.274 891.416 3.49053 667.434C0.484304 661.464 4.76053 654.289 11.4449 654.289H157.583C160.294 654.289 162.843 655.472 164.498 657.62C197.332 700.227 288.128 851.531 316.541 876.732C345.753 902.641 408.043 935.709 453.149 948.323C498.685 960.596 547.658 966.732 600.067 966.732C661.068 966.732 715.84 958.891 764.384 943.209C812.927 927.186 851.375 905.027 879.728 876.732C908.08 848.096 922.257 814.687 922.257 776.505C922.257 741.732 910.013 713.437 885.527 691.618C861.041 669.8 828.821 652.073 788.87 638.437C748.918 624.8 705.745 612.868 659.35 602.641L496.967 565.823C393.866 542.3 312.245 508.721 252.103 465.084C191.961 421.448 161.89 364.346 161.89 293.777C161.89 235.141 181.866 184.005 221.817 140.368C262.198 96.391 316.326 62.3001 384.201 38.0956C452.505 13.5501 528.756 1.27738 612.955 1.27738C698.013 1.27738 773.62 13.3797 839.776 37.5842C905.932 61.4478 958.342 94.1751 997.005 135.766C1033.78 174.887 1054.2 218.984 1058.29 268.058C1058.71 273.154 1054.61 277.414 1049.49 277.414H911.97Z"/>
</mask>
<path d="M911.97 277.414C907.513 277.414 903.755 274.139 902.885 269.767C893.303 221.622 862.386 183.944 810.134 156.732C755.147 128.096 687.703 113.777 607.8 113.777C549.376 113.777 498.256 121.277 454.438 136.277C411.05 151.277 377.113 171.902 352.626 198.152C328.569 224.402 316.541 254.232 316.541 287.641C316.541 315.596 324.918 339.63 341.672 359.743C358.855 379.516 380.764 396.05 407.398 409.346C434.033 422.3 461.956 433.039 491.167 441.561C520.379 449.743 547.228 456.391 571.714 461.505L705.745 490.141C740.112 497.3 778.345 507.186 820.444 519.8C862.973 532.414 903.569 549.63 942.232 571.448C981.324 592.925 1013.54 620.539 1038.89 654.289C1064.23 688.039 1076.91 729.459 1076.91 778.55C1076.91 835.141 1058.22 886.277 1020.85 931.959C983.902 977.641 929.774 1013.95 858.463 1040.88C787.581 1067.81 701.449 1081.28 600.067 1081.28C505.558 1081.28 423.723 1069.18 354.559 1044.97C285.826 1020.77 231.698 987.016 192.176 943.721C153.82 901.241 116.274 891.416 3.49053 667.434C0.484304 661.464 4.76053 654.289 11.4449 654.289H157.583C160.294 654.289 162.843 655.472 164.498 657.62C197.332 700.227 288.128 851.531 316.541 876.732C345.753 902.641 408.043 935.709 453.149 948.323C498.685 960.596 547.658 966.732 600.067 966.732C661.068 966.732 715.84 958.891 764.384 943.209C812.927 927.186 851.375 905.027 879.728 876.732C908.08 848.096 922.257 814.687 922.257 776.505C922.257 741.732 910.013 713.437 885.527 691.618C861.041 669.8 828.821 652.073 788.87 638.437C748.918 624.8 705.745 612.868 659.35 602.641L496.967 565.823C393.866 542.3 312.245 508.721 252.103 465.084C191.961 421.448 161.89 364.346 161.89 293.777C161.89 235.141 181.866 184.005 221.817 140.368C262.198 96.391 316.326 62.3001 384.201 38.0956C452.505 13.5501 528.756 1.27738 612.955 1.27738C698.013 1.27738 773.62 13.3797 839.776 37.5842C905.932 61.4478 958.342 94.1751 997.005 135.766C1033.78 174.887 1054.2 218.984 1058.29 268.058C1058.71 273.154 1054.61 277.414 1049.49 277.414H911.97Z" fill="black"/>
<path d="M902.394 269.865C902.721 269.8 903.048 269.735 903.375 269.67C894.4 218.93 855.329 178.685 810.45 156.126C757.709 128.571 698.142 116.653 639.08 113.652C628.662 113.122 618.23 112.867 607.8 112.856C555.906 112.845 503.471 118.465 454.085 135.247C416.191 148.31 379.445 167.692 351.74 197.326L351.733 197.334C329.018 221.485 314.828 254.217 315.233 287.641C314.951 313.846 323.505 340.496 340.61 360.627L340.629 360.649C358.874 381.733 381.923 398.26 406.748 410.649L406.761 410.656C433.761 423.822 461.912 434.603 490.737 443.036L490.753 443.04C517.415 450.525 544.267 457.38 571.386 463.077C616.048 472.658 660.717 482.239 705.387 491.819C743.99 499.914 782.124 510.19 819.926 521.529C862.164 534.074 902.959 551.413 941.299 573.101L941.318 573.112C978.599 593.525 1011.88 621.416 1037.3 655.479C1063.87 690.387 1075.11 734.914 1074.85 778.55C1075.36 833.838 1054.53 888.247 1019.18 930.595L1019.17 930.605C977.788 981.746 918.867 1015.7 857.668 1038.78C775.793 1069.6 687.337 1078.8 600.067 1078.93C517.271 1078.8 433.637 1069.96 355.36 1042.68C295.017 1021.46 237.202 989.504 193.995 942.06L194.004 942.07C108.086 868.2 56.9852 765.469 5.72165 666.311C3.45341 662.29 6.86586 656.559 11.4449 656.787C39.2801 656.788 67.1152 656.789 94.9504 656.789C115.828 656.789 136.705 656.789 157.583 656.788C159.527 656.779 161.386 657.657 162.519 659.145C214.877 730.665 256.316 810.052 314.896 878.587C355.466 911.801 402.631 935.339 452.488 950.689L452.51 950.695C500.568 963.651 550.41 969.18 600.067 969.159C655.756 969.133 711.881 962.675 765.116 945.478L765.131 945.473C807.736 931.381 849.195 910.508 881.382 878.39L881.392 878.38C908.324 851.935 925.164 814.539 924.559 776.505C925.138 744.21 911.831 711.142 887.034 689.927C858.949 664.992 824.71 648.349 789.586 636.337C747.07 621.854 703.646 610.183 659.814 600.537L659.826 600.54C605.693 588.294 551.558 576.05 497.424 563.807C411.323 543.937 325.365 515.275 253.223 463.541C198.147 425.619 161.964 361.104 163.659 293.777C162.918 237.791 184.745 182.333 223.028 141.477C266.535 93.8646 324.156 61.0596 384.699 39.4935C457.613 13.1874 535.529 2.60195 612.955 2.55411C689.705 2.4944 767.135 12.2246 839.414 38.5722C892.997 57.8293 944.402 85.4282 985.448 125.208C989.187 128.829 992.833 132.544 996.378 136.349C1030.5 171.988 1053.88 218.634 1057.6 268.115C1058.11 272.622 1054.02 276.861 1049.49 276.739C1003.65 276.791 957.811 276.844 911.97 276.898C907.872 276.973 904.113 273.694 903.375 269.67C903.048 269.735 902.721 269.8 902.394 269.865C903.2 274.322 907.363 277.997 911.97 277.929C957.811 277.983 1003.65 278.037 1049.49 278.089C1054.74 278.248 1059.56 273.314 1058.98 268C1055.36 218.192 1031.88 171.097 997.629 135.18C994.076 131.349 990.416 127.605 986.664 123.955C945.469 83.8599 893.867 56.0293 840.133 36.5945C767.61 9.99197 689.922 0.0844334 612.955 0.000653645C535.302 -0.0953526 457.048 10.3778 383.699 36.6989C322.808 58.2736 264.652 91.2121 220.608 139.258C181.769 180.539 159.427 237.018 160.122 293.777C158.231 362.069 195.215 428.214 250.983 466.628C323.754 518.941 410.116 547.79 496.507 567.838C550.631 580.142 604.752 592.443 658.873 604.742L658.886 604.745C702.578 614.405 745.837 626.078 788.153 640.536C822.902 652.448 856.602 668.919 884.02 693.31C907.868 713.817 920.482 745.163 919.954 776.505C920.473 813.411 904.315 849.283 878.063 875.084L878.073 875.074C846.59 906.458 805.796 927.032 763.636 940.945L763.651 940.94C711.015 957.913 655.379 964.306 600.067 964.305C550.767 964.304 501.36 958.793 453.789 945.951L453.811 945.957C404.975 930.957 357.622 907.236 318.186 874.877C261.202 808.084 219.059 728.01 166.478 656.095C164.391 653.341 160.94 651.761 157.583 651.789C136.705 651.789 115.828 651.789 94.9504 651.789C67.1152 651.789 39.2801 651.789 11.4449 651.79C3.17334 651.485 -2.6874 661.449 1.25941 668.558C52.4258 767.617 104.434 871.642 190.348 945.371L190.357 945.381C234.313 993.606 292.899 1025.88 353.754 1047.26C432.791 1074.74 516.919 1083.55 600.067 1083.63C687.696 1083.44 776.642 1074.16 859.261 1042.98C920.891 1019.67 980.502 985.335 1022.52 933.314L1022.51 933.323C1058.36 890.332 1079.59 834.735 1078.97 778.55C1079.2 734.302 1067.69 688.758 1040.47 653.098C1014.66 618.597 980.868 590.369 943.146 569.784L943.165 569.794C904.551 548.02 863.466 530.627 820.958 518.07C783.072 506.766 744.836 496.523 706.095 488.461C661.419 478.952 616.735 469.443 572.05 459.934C545.008 454.301 518.206 447.508 491.582 440.083L491.597 440.087C462.916 431.75 434.906 421.08 408.035 408.036L408.049 408.042C383.471 395.831 360.719 379.566 342.714 358.837L342.733 358.859C326.012 339.235 317.636 313.374 317.849 287.641C317.404 254.849 331.178 222.845 353.519 198.971L353.512 198.979C380.778 169.689 417.142 150.37 454.794 137.306C503.825 120.527 556.045 114.8 607.8 114.699C618.201 114.688 628.604 114.919 638.992 115.424C697.885 118.285 757.246 130.029 809.819 157.338C854.535 179.701 893.34 219.488 902.394 269.865ZM903.375 269.67L902.394 269.865L903.375 269.67Z" fill="black" mask="url(#path-1-outside-1_20_9)"/>
</svg>
